<svg width="374" height="374" viewBox="0 0 374 374" fill="none" xmlns="http://www.w3.org/2000/svg">
<g opacity="0.1">
<path d="M186.892 25.8693C97.9164 25.8693 25.7914 98.0031 25.7914 186.971C25.7914 189.553 25.8659 192.119 25.9864 194.672C16.5451 195.851 9.21265 203.814 9.21265 213.575C9.21265 224.147 17.7825 232.717 28.3546 232.717H32.4196C52.1372 299.404 113.812 348.07 186.892 348.07C275.868 348.07 347.993 275.953 347.993 186.97C347.994 98.0038 275.869 25.8693 186.892 25.8693Z" fill="#FFA1E0"/>
<path d="M126.605 131.057C125.819 131.058 125.041 130.892 124.323 130.57C123.606 130.247 122.965 129.776 122.444 129.187C118.227 124.425 112.133 121.696 105.719 121.693H105.714C99.2983 121.693 93.1989 124.425 88.9753 129.189C87.9969 130.29 86.6217 130.958 85.1514 131.046C83.6812 131.134 82.236 130.635 81.133 129.659C80.031 128.681 79.3624 127.306 79.2741 125.835C79.1859 124.365 79.6853 122.919 80.6626 121.817C86.9935 114.678 96.1237 110.584 105.714 110.584H105.721C115.312 110.587 124.437 114.683 130.761 121.819C131.737 122.922 132.235 124.368 132.146 125.838C132.057 127.309 131.388 128.684 130.286 129.661C129.272 130.562 127.962 131.059 126.605 131.057V131.057ZM249.918 129.187C254.142 124.425 260.237 121.693 266.654 121.693H266.66C273.072 121.696 279.167 124.425 283.387 129.187C285.422 131.487 288.937 131.691 291.227 129.661C292.329 128.684 292.998 127.309 293.087 125.838C293.175 124.367 292.676 122.922 291.699 121.819C285.378 114.683 276.25 110.587 266.66 110.584H266.654C257.064 110.584 247.931 114.678 241.605 121.819C241.121 122.365 240.75 123.001 240.512 123.69C240.274 124.379 240.174 125.109 240.218 125.837C240.262 126.565 240.448 127.277 240.768 127.933C241.087 128.589 241.532 129.175 242.078 129.659C243.092 130.562 244.404 131.059 245.762 131.057C246.547 131.058 247.325 130.892 248.041 130.569C248.758 130.247 249.398 129.775 249.918 129.187V129.187Z" fill="#E274C8"/>
<path d="M186.957 274.689C162.933 274.689 138.915 266.425 120.631 249.886C117.091 246.685 116.817 241.221 120.018 237.682C123.22 234.143 128.683 233.869 132.222 237.07C162.407 264.366 211.517 264.357 241.707 237.07C245.251 233.863 250.723 234.148 253.91 237.682C257.112 241.227 256.837 246.69 253.298 249.886C235.004 266.42 210.977 274.689 186.957 274.689V274.689ZM129.32 170.099C124.891 160.131 115.845 153.937 105.714 153.937H105.712C95.5792 153.937 86.5338 160.128 82.102 170.099C81.8084 170.76 81.6542 171.441 81.5607 172.122C80.3029 175.007 80.8777 178.455 83.3606 180.655C86.4417 183.384 91.1598 183.102 93.8918 180.013C96.867 176.652 101.173 174.724 105.705 174.721H105.707C110.242 174.721 114.553 176.652 117.533 180.015C118.232 180.807 119.092 181.44 120.055 181.873C121.018 182.306 122.063 182.529 123.119 182.528C124.876 182.528 126.643 181.91 128.063 180.652C130.545 178.453 131.118 175.006 129.861 172.122C129.767 171.441 129.613 170.76 129.32 170.099V170.099ZM290.804 172.127C290.711 171.443 290.557 170.76 290.261 170.096C285.83 160.127 276.784 153.936 266.654 153.936C256.519 153.936 247.473 160.128 243.042 170.096C242.747 170.759 242.593 171.442 242.5 172.126C241.245 175.009 241.821 178.457 244.305 180.653C247.391 183.392 252.106 183.091 254.835 180.012C257.805 176.651 262.111 174.723 266.644 174.72H266.649C271.182 174.72 275.492 176.651 278.472 180.014C279.172 180.805 280.032 181.439 280.996 181.872C281.959 182.305 283.004 182.528 284.061 182.526C285.882 182.527 287.641 181.86 289.003 180.65C291.482 178.455 292.058 175.01 290.804 172.127V172.127Z" fill="#2B3B47"/>
<path d="M347.811 194.176C347.916 191.786 347.994 189.388 347.994 186.971C347.994 143.929 331.091 104.848 303.571 75.9679C319.139 101.182 328.131 130.885 328.131 162.699C328.131 254.102 254.023 328.218 162.612 328.218C130.806 328.218 101.103 319.224 75.8757 303.667C104.77 331.17 143.85 348.071 186.892 348.071C260.158 348.071 321.957 299.155 341.51 232.206H345.316C355.887 232.206 364.457 223.636 364.457 213.065C364.457 203.349 357.19 195.411 347.811 194.176V194.176Z" fill="#E583C9"/>
</g>
</svg>
